<svg width="11" height="14" viewBox="0 0 11 14" fill="none" xmlns="http://www.w3.org/2000/svg">
<path d="M10 4.21V9.268C9.61871 9.04787 9.17545 8.9597 8.73894 9.01716C8.30244 9.07463 7.89709 9.27453 7.58578 9.58585C7.27446 9.89717 7.07457 10.3025 7.01711 10.739C6.95965 11.1755 7.04782 11.6188 7.26796 12.0001C7.4881 12.3814 7.8279 12.6793 8.23466 12.8478C8.64142 13.0163 9.09241 13.0459 9.51767 12.9319C9.94294 12.8179 10.3187 12.5668 10.5867 12.2175C10.8547 11.8682 11 11.4403 11 11V0.926001C11.0002 0.797638 10.9694 0.671123 10.9104 0.557141C10.8513 0.443158 10.7657 0.345055 10.6608 0.271115C10.5559 0.197174 10.4347 0.149569 10.3075 0.132318C10.1803 0.115068 10.0508 0.128678 9.93 0.172001L3.53 2.458C3.37485 2.51363 3.24067 2.61582 3.1458 2.7506C3.05093 2.88538 3.00001 3.04618 3 3.211V10.267C2.61875 10.0469 2.17553 9.95871 1.73907 10.0161C1.3026 10.0736 0.897279 10.2734 0.585954 10.5847C0.274629 10.8959 0.0746961 11.3012 0.0171572 11.7376C-0.0403817 12.1741 0.047689 12.6173 0.267712 12.9986C0.487736 13.3799 0.827418 13.678 1.23409 13.8466C1.64075 14.0152 2.09168 14.0449 2.51695 13.9311C2.94222 13.8173 3.31806 13.5664 3.5862 13.2172C3.85434 12.8681 3.99979 12.4402 4 12V6.353L10 4.211V4.21Z" fill="#FF4848"/>
</svg>
